<!DOCTYPE svg PUBLIC "-//W3C//DTD SVG 1.1//EN" "http://www.w3.org/Graphics/SVG/1.1/DTD/svg11.dtd">
<!-- Uploaded to: SVG Repo, www.svgrepo.com, Transformed by: SVG Repo Mixer Tools -->
<svg width="256px" height="256px" viewBox="-6 -6 36.00 36.00" fill="none" xmlns="http://www.w3.org/2000/svg">
<g id="SVGRepo_bgCarrier" stroke-width="0">
<rect x="-6" y="-6" width="36.00" height="36.00" rx="18" fill="#005176" strokewidth="0"/>
</g>
<g id="SVGRepo_tracerCarrier" stroke-linecap="round" stroke-linejoin="round"/>
<g id="SVGRepo_iconCarrier"> <path d="M5 8V17.0192M9 8V17M15 8V17M19 8V17.0192M5 17.0192C5.31428 17 5.70173 17 6.2 17H17.8C18.2983 17 18.6857 17 19 17.0192M5 17.0192C4.60779 17.0431 4.32953 17.097 4.09202 17.218C3.71569 17.4097 3.40973 17.7157 3.21799 18.092C3 18.5198 3 19.0799 3 20.2V21H21V20.2C21 19.0799 21 18.5198 20.782 18.092C20.5903 17.7157 20.2843 17.4097 19.908 17.218C19.6705 17.097 19.3922 17.0431 19 17.0192M3 5.5V8H21V5.5L12 3L3 5.5Z" stroke="#ffffff" stroke-width="1.8" stroke-linecap="round" stroke-linejoin="round"/> </g>
</svg>