<!DOCTYPE svg PUBLIC "-//W3C//DTD SVG 1.1//EN" "http://www.w3.org/Graphics/SVG/1.1/DTD/svg11.dtd">
<!-- Uploaded to: SVG Repo, www.svgrepo.com, Transformed by: SVG Repo Mixer Tools -->
<svg width="256px" height="256px" viewBox="-6 -6 36.00 36.00" fill="none" xmlns="http://www.w3.org/2000/svg">
<g id="SVGRepo_bgCarrier" stroke-width="0">
<rect x="-6" y="-6" width="36.00" height="36.00" rx="18" fill="#1ab180" strokewidth="0"/>
</g>
<g id="SVGRepo_tracerCarrier" stroke-linecap="round" stroke-linejoin="round"/>
<g id="SVGRepo_iconCarrier"> <path d="M17 3H7M15 3V9.67363C17.3649 10.7971 19 13.2076 19 16M19 16C19 17.9587 18.1955 19.7295 16.899 21H7.10102C5.80447 19.7295 5 17.9587 5 16M19 16H16.8028C15.6273 16 14.4781 15.6521 13.5 15C12.5219 14.3479 11.3727 14 10.1972 14H10C9.81842 14 9.72763 14 9.63865 14.0026C8.5756 14.0342 7.54004 14.3477 6.63803 14.9112C6.56253 14.9583 6.48697 15.0087 6.3359 15.1094L5 16M9 3V9.67363C6.63505 10.7971 5 13.2076 5 16" stroke="#ffffff" stroke-width="1.8" stroke-linecap="round" stroke-linejoin="round"/> </g>
</svg>